<svg xmlns="http://www.w3.org/2000/svg" viewBox="0 0 64 64" id="fast-food"><g><path fill="#ffff97" d="M38,33.116A4.66,4.66,0,0,0,36.964,33a4.836,4.836,0,0,0-3.036,1.1A4.774,4.774,0,0,0,28,33.97l.109,1.506L30.217,63H49.783l2.108-27.524L52,33.97a4.774,4.774,0,0,0-5.928.126A4.836,4.836,0,0,0,43.036,33,4.7,4.7,0,0,0,41,33.466"></path><path fill="#ffff97" d="M35,33.116A4.66,4.66,0,0,0,33.964,33a4.836,4.836,0,0,0-3.036,1.1A4.774,4.774,0,0,0,25,33.97l.109,1.506L27.217,63H46.783l2.108-27.524L49,33.97a4.774,4.774,0,0,0-5.928.126A4.836,4.836,0,0,0,40.036,33,4.7,4.7,0,0,0,38,33.466"></path><path fill="#ffffac" d="M52,33.97l-.11,1.51L49.78,63h-3l2.11-27.52L49,33.97a4.783,4.783,0,0,0-1.38-.72A4.612,4.612,0,0,1,49.11,33,4.809,4.809,0,0,1,52,33.97Z"></path><rect width="30" height="4" x="25" y="17" fill="#ffff97"></rect><rect width="3" height="4" x="52" y="17" fill="#ffffac"></rect><rect width="4" height="16" x="38" y="1" fill="#e6e6e6"></rect><path fill="#c73b40" d="M27,21l.613,8L28,33.97a4.774,4.774,0,0,1,5.928.126A4.753,4.753,0,0,1,40,34.1a4.753,4.753,0,0,1,6.072,0A4.774,4.774,0,0,1,52,33.97l.352-4.51L53,21Z"></path><path fill="#d26266" d="M53,21l-.65,8.46L52,33.97A4.809,4.809,0,0,0,49.11,33h-.03l.27-3.54L50,21Z"></path><path d="M55,16H43V1a1,1,0,0,0-1-1H38a1,1,0,0,0-1,1V16H25a1,1,0,0,0-1,1v4a1,1,0,0,0,1,1h1.074l.542,7.076a1,1,0,0,0,1.994-.152L28.08,22H51.921l-.8,10.363a5.789,5.789,0,0,0-3.382-.18c-.059.014-.117.032-.176.048a5.47,5.47,0,0,0-.579.2c-.069.027-.138.052-.206.082a5.767,5.767,0,0,0-.707.365,5.761,5.761,0,0,0-4.3-.731,1,1,0,1,0,.446,1.949,3.811,3.811,0,0,1,3.224.785,1,1,0,0,0,1.25,0,3.9,3.9,0,0,1,.521-.351c.057-.033.117-.057.175-.086a3.988,3.988,0,0,1,.384-.175c.063-.024.128-.041.191-.061a3.817,3.817,0,0,1,.4-.108c.059-.012.118-.019.177-.029a3.742,3.742,0,0,1,.436-.043c.049,0,.1,0,.149,0a3.681,3.681,0,0,1,.469.03c.041,0,.082.009.122.016a3.836,3.836,0,0,1,.483.111l.107.031a3.857,3.857,0,0,1,.453.187c.041.02.084.036.124.057.025.013.047.031.071.044L48.855,62H42a1,1,0,0,0,0,2h7.782a1,1,0,0,0,1-.924l2.109-27.528.108-1.5v0L53.926,22H55a1,1,0,0,0,1-1V17A1,1,0,0,0,55,16ZM39,2h2V16H39ZM54,20H26V18H54Z"></path><rect width="30" height="5" x="9" y="58" fill="#f4a13c" rx="2.5"></rect><path fill="#f6b463" d="M36.5,58h-3a2.5,2.5,0,0,1,0,5h3a2.5,2.5,0,0,0,0-5Z"></path><path fill="#f4a13c" d="M11.9,41H36.1A2.793,2.793,0,0,0,39,38.333v-.109a2.65,2.65,0,0,0-1.673-2.417,33.038,33.038,0,0,0-26.654,0A2.65,2.65,0,0,0,9,38.224v.109A2.793,2.793,0,0,0,11.9,41Z"></path><path fill="#f6b463" d="M37.327,35.807A33.722,33.722,0,0,0,22.5,33.039a34.521,34.521,0,0,1,11.827,2.768A2.65,2.65,0,0,1,36,38.224v.109A2.793,2.793,0,0,1,33.1,41h3A2.793,2.793,0,0,0,39,38.333v-.109A2.65,2.65,0,0,0,37.327,35.807Z"></path><rect width="26" height="3" x="11" y="41" fill="red" rx="1"></rect><path fill="#f66" d="M36,41H33a1,1,0,0,1,1,1v1a1,1,0,0,1-1,1h3a1,1,0,0,0,1-1V42A1,1,0,0,0,36,41Z"></path><path fill="#8cc63f" d="M35.923,44H12.077a.939.939,0,0,0-.833.828A9.931,9.931,0,0,0,11,46.286,1.551,1.551,0,0,0,12.3,48a1.379,1.379,0,0,0,1.22-1.143h.16A1.379,1.379,0,0,0,14.9,48a1.379,1.379,0,0,0,1.22-1.143h.16A1.379,1.379,0,0,0,17.5,48a1.379,1.379,0,0,0,1.22-1.143h.16A1.379,1.379,0,0,0,20.1,48a1.379,1.379,0,0,0,1.22-1.143h.16A1.379,1.379,0,0,0,22.7,48a1.379,1.379,0,0,0,1.22-1.143h.16A1.379,1.379,0,0,0,25.3,48a1.379,1.379,0,0,0,1.22-1.143h.16A1.379,1.379,0,0,0,27.9,48a1.379,1.379,0,0,0,1.22-1.143h.16a1.223,1.223,0,0,0,2.44,0h.16a1.223,1.223,0,0,0,2.44,0h.16A1.379,1.379,0,0,0,35.7,48,1.551,1.551,0,0,0,37,46.286a9.931,9.931,0,0,0-.244-1.458A.939.939,0,0,0,35.923,44Z"></path><path fill="#9bce59" d="M37,46.29A1.549,1.549,0,0,1,35.7,48a1.376,1.376,0,0,1-1.22-1.14h-.16A1.376,1.376,0,0,1,33.1,48a1.492,1.492,0,0,1-.21-.02A1.632,1.632,0,0,0,34,46.29a10.553,10.553,0,0,0-.24-1.46.949.949,0,0,0-.84-.83h3a.949.949,0,0,1,.84.83A10.553,10.553,0,0,1,37,46.29Z"></path><path fill="#aa7b50" d="M37,48.89A2.117,2.117,0,0,1,34.89,51H13.11A2.117,2.117,0,0,1,11,48.89a1.87,1.87,0,0,1,.03-.34,2.23,2.23,0,0,1,.42-.97,1.132,1.132,0,0,0,.85.42.44.44,0,0,0,.16-.02,1.18,1.18,0,0,1,.46-.19,1.668,1.668,0,0,0,.6-.93h.16a1.678,1.678,0,0,0,.58.91h1.28a1.678,1.678,0,0,0,.58-.91h.16a1.678,1.678,0,0,0,.58.91h1.28a1.678,1.678,0,0,0,.58-.91h.16a1.678,1.678,0,0,0,.58.91h1.28a1.678,1.678,0,0,0,.58-.91h.16a1.678,1.678,0,0,0,.58.91h1.28a1.678,1.678,0,0,0,.58-.91h.16a1.678,1.678,0,0,0,.58.91h1.28a1.678,1.678,0,0,0,.58-.91h.16a1.678,1.678,0,0,0,.58.91h1.28a1.678,1.678,0,0,0,.58-.91h.16a1.678,1.678,0,0,0,.58.91h1.28a1.678,1.678,0,0,0,.58-.91h.16a1.678,1.678,0,0,0,.58.91h1.28a1.678,1.678,0,0,0,.58-.91h.16a1.668,1.668,0,0,0,.6.93,1.18,1.18,0,0,1,.46.19.44.44,0,0,0,.16.02,1.132,1.132,0,0,0,.85-.42,2.23,2.23,0,0,1,.42.97A1.87,1.87,0,0,1,37,48.89Z"></path><path fill="#bb9573" d="M37,48.89A2.117,2.117,0,0,1,34.89,51h-3A2.117,2.117,0,0,0,34,48.89a1.87,1.87,0,0,0-.03-.34,2.287,2.287,0,0,0-.29-.78h.06a1.678,1.678,0,0,0,.58-.91h.16a1.668,1.668,0,0,0,.6.93,1.18,1.18,0,0,1,.46.19.44.44,0,0,0,.16.02,1.132,1.132,0,0,0,.85-.42,2.23,2.23,0,0,1,.42.97A1.87,1.87,0,0,1,37,48.89Z"></path><path fill="#8cc63f" d="M24.66 47.77h1.28a1.005 1.005 0 0 1-1.28 0zM27.26 47.77h1.28a1.005 1.005 0 0 1-1.28 0zM29.86 47.77h1.28a1.005 1.005 0 0 1-1.28 0zM32.46 47.77h1.28a1.005 1.005 0 0 1-1.28 0zM35.08 47.79a1.18 1.18 0 0 1 .46.19A.983.983 0 0 1 35.08 47.79z"></path><path fill="#fccb7e" d="M35.5,51h-23a1.5,1.5,0,0,0,0,3H27l2,2,2-2h4.5a1.5,1.5,0,0,0,0-3Z"></path><path fill="#fdd598" d="M37,52.5A1.5,1.5,0,0,1,35.5,54h-3a1.5,1.5,0,0,0,0-3h3A1.5,1.5,0,0,1,37,52.5Z"></path><path fill="#603813" d="M37,56a2.015,2.015,0,0,1-2,2H13a2.006,2.006,0,0,1-2-2,1.935,1.935,0,0,1,.44-1.24.8.8,0,0,1,.15-.17A1.955,1.955,0,0,1,13,54H28.41l.59.59.59-.59H35a1.987,1.987,0,0,1,1.56.76A1.935,1.935,0,0,1,37,56Z"></path><path fill="#806042" d="M36.56,54.76A1.987,1.987,0,0,0,35,54H32a1.987,1.987,0,0,1,1.56.76A1.935,1.935,0,0,1,34,56a2.015,2.015,0,0,1-2,2h3a2.015,2.015,0,0,0,2-2A1.935,1.935,0,0,0,36.56,54.76Z"></path><path d="M40,38.333v-.108a3.65,3.65,0,0,0-2.285-3.34,34.164,34.164,0,0,0-27.431,0A3.651,3.651,0,0,0,8,38.225v.108a3.633,3.633,0,0,0,2.057,3.211A2.019,2.019,0,0,0,10,42v1a1.975,1.975,0,0,0,.406,1.194,2.247,2.247,0,0,0-.14.422A8.48,8.48,0,0,0,10,46.286a3.1,3.1,0,0,0,.323,1.385c-.013-.025-.031-.045-.043-.071a3.063,3.063,0,0,0,.4,3.2,2.465,2.465,0,0,0-.039,3.352l-.008.008A3.03,3.03,0,0,0,10,56a2.97,2.97,0,0,0,.274,1.234A3.493,3.493,0,0,0,11.5,64h25a3.493,3.493,0,0,0,1.226-6.766A2.97,2.97,0,0,0,38,56a3.03,3.03,0,0,0-.63-1.84l-.008-.008a2.465,2.465,0,0,0-.039-3.352,3.063,3.063,0,0,0,.4-3.2c-.012.026-.03.046-.043.071A3.1,3.1,0,0,0,38,46.286a8.47,8.47,0,0,0-.267-1.672,2.324,2.324,0,0,0-.139-.42A1.975,1.975,0,0,0,38,43V42a2.019,2.019,0,0,0-.057-.456A3.633,3.633,0,0,0,40,38.333ZM36,43H12V42H36Zm-.223,2.04A8.39,8.39,0,0,1,36,46.286a.787.787,0,0,1-.3.714.6.6,0,0,1-.257-.4,1,1,0,0,0-.965-.74H34.32a1,1,0,0,0-.966.741.608.608,0,0,1-.252.4.59.59,0,0,1-.256-.4,1,1,0,0,0-.966-.741h-.159a1,1,0,0,0-.965.74.61.61,0,0,1-.255.4.6.6,0,0,1-.257-.4,1,1,0,0,0-.965-.74H29.12a1,1,0,0,0-.966.741.6.6,0,0,1-.253.4.6.6,0,0,1-.255-.4,1,1,0,0,0-.966-.741h-.159a1,1,0,0,0-.965.74.61.61,0,0,1-.255.4.6.6,0,0,1-.255-.4,1,1,0,0,0-.966-.741h-.16a1,1,0,0,0-.966.741.6.6,0,0,1-.253.4.6.6,0,0,1-.257-.4,1,1,0,0,0-.965-.74H21.32a1,1,0,0,0-.966.741.608.608,0,0,1-.252.4.59.59,0,0,1-.256-.4,1,1,0,0,0-.966-.741h-.159a1,1,0,0,0-.965.74.61.61,0,0,1-.255.4.6.6,0,0,1-.257-.4,1,1,0,0,0-.965-.74H16.12a1,1,0,0,0-.966.741.6.6,0,0,1-.253.4.6.6,0,0,1-.255-.4,1,1,0,0,0-.966-.741h-.159a1,1,0,0,0-.965.74.606.606,0,0,1-.256.4.783.783,0,0,1-.3-.713,8.363,8.363,0,0,1,.22-1.245L12.231,45H35.769C35.772,45.012,35.776,45.025,35.779,45.04ZM35.5,53H31a1.006,1.006,0,0,0-.385.077,1.076,1.076,0,0,0-.325.213l-.416.422L29,54.586l-.874-.874-.416-.422a1.076,1.076,0,0,0-.325-.213A1.006,1.006,0,0,0,27,53H12.5a.5.5,0,0,1,0-1h23a.5.5,0,0,1,0,1Zm.5,3a1,1,0,0,1-1,1H13a1,1,0,0,1,0-2H26.586l.7.7,1,1.011a1.053,1.053,0,0,0,.333.216,1,1,0,0,0,.754,0,1.053,1.053,0,0,0,.333-.216l1-1.011.7-.7H35A1,1,0,0,1,36,56ZM12.01,48.98a2.825,2.825,0,0,0,.29.02h0a2.053,2.053,0,0,0,1.3-.47,2.1,2.1,0,0,0,2.6,0,2.1,2.1,0,0,0,2.6,0,2.1,2.1,0,0,0,2.6,0,2.1,2.1,0,0,0,2.6,0,2.1,2.1,0,0,0,2.6,0,2.1,2.1,0,0,0,2.6,0,2.1,2.1,0,0,0,2.6,0,2.1,2.1,0,0,0,2.6,0,2.053,2.053,0,0,0,1.3.47h0a2.825,2.825,0,0,0,.29-.02A1.1,1.1,0,0,1,34.89,50H13.11A1.1,1.1,0,0,1,12.01,48.98ZM38,60.5A1.5,1.5,0,0,1,36.5,62h-25a1.5,1.5,0,0,1,0-3h25A1.5,1.5,0,0,1,38,60.5Zm0-22.167A1.8,1.8,0,0,1,36.1,40H11.9A1.8,1.8,0,0,1,10,38.333v-.108a1.657,1.657,0,0,1,1.061-1.5A33.113,33.113,0,0,1,24,34.016a33.108,33.108,0,0,1,12.938,2.713A1.657,1.657,0,0,1,38,38.225Z"></path></g></svg>